<svg width="484" height="301" viewBox="0 0 484 301" fill="none" xmlns="http://www.w3.org/2000/svg">
<path d="M417.5 5.5L484 0.5C435 11.5 288.667 124.118 299.5 301H-73.5003C-109.012 107.127 417.5 5.5 417.5 5.5Z" fill="url(#paint0_linear_773_18)"/>
<path d="M139.5 169L153 169C134.678 183.166 123.758 193.68 107 224.57L90.9996 224.57C111.035 194.991 121.507 182.088 139.5 169Z" fill="#F7B500"/>
<path d="M247.051 88.9024L255.04 90.7526C241.763 96.6277 233.495 101.355 218.27 117.346L208.802 115.153C225.741 100.388 234.155 94.1843 247.051 88.9024Z" fill="#F7B500"/>
<path d="M325.045 51.5499L328.468 52.9427C322.139 54.6111 318.121 56.1257 310.201 62.157L306.144 60.5061C314.739 55.1425 318.927 52.9813 325.045 51.5499Z" fill="#F7B500"/>
<path d="M375.256 31.4377L377.343 32.3292C373.06 33.179 370.295 33.9867 364.541 37.3717L362.067 36.3151C368.194 33.3372 371.134 32.1525 375.256 31.4377Z" fill="#F7B500"/>
<path d="M289.012 297.875C288.621 295.703 288.375 292.956 288.276 290.767C288.244 290.087 288.437 290.417 288.424 289.955C288.401 289.056 288.25 288.225 288.252 287.325C288.254 287.027 288.534 287.376 288.53 287.064C288.507 285.346 288.339 283.75 288.304 282.034C288.134 273.548 288.34 265.224 289.023 256.697C289.249 253.85 289.765 250.515 289.975 247.574C289.999 247.236 289.758 247.414 289.747 247.348C289.576 246.317 289.985 246.698 290.115 246.05C290.635 243.481 291.03 240.559 291.302 238.068C291.419 237 290.829 238.003 291.23 236.966C291.257 236.894 291.45 237.199 291.518 236.91C291.67 236.257 291.822 234.991 291.922 234.478C292.114 233.499 292.138 233.342 292.293 232.414C292.508 231.147 292.884 229.654 293.081 228.274C293.122 227.979 292.815 228.324 292.86 227.85C292.905 227.37 293.152 226.162 293.287 225.759C293.422 225.358 293.574 225.569 293.631 225.504C294.104 224.975 293.886 223.463 293.911 223.277C294.376 219.881 295.27 217.158 296.003 214.036C296.551 211.699 297.082 209.18 297.682 206.946C298.39 204.32 299.134 202.121 299.856 199.553C299.931 199.285 299.568 199.519 299.661 199.191C300.641 195.711 301.756 192.237 303.071 188.875C303.204 188.537 303.293 189.059 303.439 188.726C304.332 186.669 305.945 183.538 305.375 181.933C305.92 180.534 306.6 178.811 307.273 177.641C307.709 176.882 307.665 177.763 307.933 176.73C307.994 176.497 307.662 176.704 307.77 176.361C308.227 174.915 308.901 173.397 309.345 171.95C309.435 171.655 309.207 171.655 309.204 171.559C309.187 170.763 310.113 169.842 310.247 169.612C311.261 167.862 311.727 166.466 312.471 164.74C312.645 164.339 312.179 164.701 312.337 164.311C313.151 162.308 314.079 160.268 315.075 158.379C315.297 157.96 315.338 158.457 315.456 158.262C315.972 157.402 315.649 157.005 316.137 156.186C316.24 156.013 316.381 156.203 316.417 156.179C316.983 155.812 316.733 155.147 316.785 155.009C317.439 153.256 318.433 152.406 319.157 150.747C319.244 150.548 318.792 150.872 319.05 150.32C320.751 146.672 322.785 142.87 324.857 139.467C325.18 138.935 325.144 139.42 325.184 139.397C325.821 139.017 325.569 138.412 325.65 138.224C326.293 136.751 327.398 135.644 327.395 134.408C330.889 128.616 334.109 122.63 338.209 117.312C338.261 117.244 338.388 117.509 338.491 117.373C339.729 115.73 339.187 115.848 339.541 114.446C339.631 114.092 340.684 113.552 340.771 113.499C341.086 113.309 341.204 113.805 341.291 113.728C342.003 113.094 340.892 112.528 341.595 111.49C341.618 111.459 341.714 111.723 341.792 111.649C342.034 111.419 342.142 111.1 342.387 110.881C342.95 110.378 343.591 110.505 343.941 109.387C343.985 109.244 343.283 109.022 343.953 108.119C344.223 107.755 345.346 106.141 345.705 105.718C346.062 105.295 346.026 105.734 346.057 105.708C347.164 104.674 346.938 105.204 347.731 104.859C348.524 104.515 347.551 104.066 347.635 103.75C347.718 103.435 348.562 102.697 348.79 102.532C349.018 102.366 348.936 102.721 349.116 102.557C350.31 101.471 349.108 101.688 349.285 101.168C349.703 99.9389 350.894 99.6502 351.631 98.8017C351.831 98.5724 351.54 98.6625 351.69 98.4371C352.287 97.5457 352.871 97.182 353.441 96.0789C353.533 95.8988 353.77 94.8289 354.436 94.5356C354.531 94.4947 354.525 94.8174 354.843 94.4831C355.32 93.9794 356.106 93.0522 356.513 92.4386C356.812 91.9864 356.176 92.2706 356.678 91.8011C356.902 91.5927 356.698 92.1472 357.106 91.7463C357.511 91.3476 358.414 90.2178 358.759 89.7867C359.102 89.3561 358.723 89.4358 358.738 89.391C358.836 89.123 359.417 88.2303 359.478 88.1583C359.791 87.7731 360.107 87.3945 360.425 87.0213L360.448 86.9946C363.253 83.9994 366.183 81.3127 368.885 78.2795C369.125 78.0109 368.774 78.009 368.809 77.9662C369.581 76.9957 369.405 78.1713 370.165 77.7014C369.699 77.4369 370.129 77.1198 370.676 76.4631C370.942 76.1439 370.641 76.1683 370.652 76.1268C370.855 75.4705 371.438 75.432 371.573 75.4079C372.07 75.3177 372.126 74.7526 372.463 74.6883C372.798 74.6231 372.564 75.2895 373.138 74.6862C373.166 74.3886 372.386 74.4983 372.768 73.9869C374.201 72.0609 377.582 69.1396 378.95 67.8149C380.32 66.4831 380.739 66.0156 381.566 65.2804C383.07 63.9475 382.296 64.2124 383.065 63.2131C383.84 62.2108 384.032 63.2713 384.294 63.2796C384.554 63.2903 384.553 63.0147 384.784 62.934C385.013 62.8546 384.769 63.2793 385.161 62.9466C385.552 62.6143 386.315 61.3871 386.306 61.1167C386.285 60.5448 385.521 60.6728 386.605 59.8287C386.668 59.7804 386.649 60.1255 386.88 59.9321C388.718 58.386 390.497 56.6823 392.335 55.1497C392.587 54.9402 392.555 55.3298 392.704 55.2101C394.254 53.9651 393.439 54.1361 393.896 53.0347C394.163 53.6732 394.87 53.547 395.971 52.5197C396.633 51.9027 396.326 51.8035 396.618 51.2583C396.706 51.0945 397.307 50.8003 397.301 50.624C397.286 50.0453 396.512 50.0987 397.784 49.1845C397.841 49.145 397.843 49.467 398.026 49.3177C399.209 48.3546 399.035 47.8967 400.216 46.7445C401.142 45.8404 403.029 44.5115 404.16 43.5656C404.621 44.1288 405.546 43.0831 405.636 42.335C406.365 41.7185 407.116 41.0223 407.86 40.4659C408.116 40.275 408.097 40.571 408.142 40.5619C408.839 40.4282 408.833 39.7885 408.976 39.6391C410.542 38.0401 412.166 37.1432 413.567 35.4987C413.616 35.4404 413.386 34.9735 414.059 34.8927C414.103 34.8889 413.712 35.5145 414.491 34.8887C415.264 34.2677 416.907 33.2644 417.836 32.2117C418.061 31.9561 418.463 31.1034 419.196 30.9274C419.295 30.9041 419.307 31.0799 419.461 31.0602C419.955 30.9942 419.818 30.4493 420.48 30.4773C421.143 30.5056 422.156 30.1163 423.069 29.0251C423.099 28.9908 423.11 28.4694 423.461 28.2052C424.028 27.7791 424.875 27.2356 425.457 26.7896C425.736 26.5759 425.405 26.5117 425.451 26.4712C427.237 24.9408 428.751 24.0957 430.846 22.7061C431.221 22.4575 432.129 21.3884 433.021 21.0959C433.999 20.7757 433.878 22.3571 435.555 20.8435C436.229 20.2391 436.336 18.2718 438.149 18.0491C440.699 16.1317 443.42 14.9233 446.032 13.0754C446.148 12.9929 446.32 12.3891 446.613 12.2288C447.058 11.9865 447.404 12.026 447.725 11.8615C449.086 11.1713 450.158 10.3958 451.496 9.73703C451.993 9.49307 451.917 9.76833 452.508 9.48316C453.097 9.20062 453.364 8.75694 454.21 8.4985C454.867 8.29674 455.723 8.52182 456.552 8.21897C456.35 7.69533 456.911 7.44949 457.832 6.89144C458.009 6.78415 457.73 6.69155 457.81 6.63152C458.148 6.37728 458.56 6.37939 458.875 6.13103C458.952 6.0709 458.883 5.89214 458.942 5.83302C459.442 5.32059 460.592 5.33441 460.786 5.34221C461.526 5.36448 461.763 5.01244 462.312 4.93401C462.86 4.85776 462.145 5.26078 462.762 5.11401C464.034 4.81202 465.589 4.2836 466.87 3.93972C467.373 3.80332 466.963 3.6513 467.033 3.62605C468.052 3.27852 469.191 3.29079 469.678 2.66565C470.691 3.79993 470.29 2.39092 471.871 2.38181C471.999 2.38235 472.253 2.97031 471.802 3.13939C471.371 3.30563 470.652 3.24243 470.048 3.51726C469.904 3.57995 469.178 4.34221 469.071 4.40595C468.23 4.89255 467.894 4.02574 467.828 3.98861C467.15 3.59212 466.277 4.4934 466.02 4.61742C464.808 5.18606 463.79 5.38958 462.802 5.89102C462.166 6.21654 462.297 6.81931 461.789 6.98988C460.103 7.56797 459.134 7.04999 457.854 8.40772C457.581 8.70094 458.189 9.15436 456.773 9.21899C456.685 9.22154 455.584 9.20058 455.19 9.72561C455.141 9.79136 455.227 9.96557 455.147 10.0215C454.627 10.388 454.191 10.4282 453.61 10.8003C453.03 11.172 452.342 11.6473 451.605 11.9598C451.166 12.1456 450.472 12.1067 450.229 12.1373C449.546 12.2154 449.142 12.9153 448.642 12.8401C448.137 12.767 448.603 11.9654 447.57 12.3142C447.783 12.7732 447.958 13.2688 448.153 13.7416C446.16 14.8471 444.09 15.8975 442.165 17.1317C441.923 17.2872 442.316 17.3606 442.061 17.5332C440.986 18.2619 439.915 18.7234 438.844 19.5216C438.012 20.1436 437.212 21.0269 436.352 21.7034C435.483 21.5977 434.266 22.6786 433.269 23.322C432.92 23.5473 432.853 23.4057 432.583 23.5366C431.57 24.0321 432.294 24.1422 432.094 24.3839C431.246 25.4175 430.479 24.5472 429.25 25.4859C429.185 25.5351 428.746 26.6263 428.658 26.74C428.112 27.4598 428.415 26.6544 427.953 26.9428C427.112 27.4701 426.471 27.77 425.65 28.6257C425.411 28.8751 424.99 29.6829 424.289 29.8524C424.196 29.8748 424.109 29.6848 424.047 29.7181C422.928 30.3374 423.295 30.8635 422.861 31.4804C422.427 32.0974 421.274 32.4514 421.015 32.4959C420.341 32.6136 421.287 32.0991 421.292 32.0542C421.351 31.5161 420.749 32.0792 420.239 32.4472C419.777 32.0142 419.12 32.5906 419.717 32.827C419.783 32.8518 420.123 32.5029 420.239 32.4472C420.197 33.2683 419.506 33.9265 418.32 34.1518C417.765 34.2579 417.93 33.7147 416.832 34.7652C416.333 35.2428 416.812 35.4073 416.421 35.8837C415.534 36.9652 413.902 37.8086 412.853 38.7834C412.473 39.1369 413.011 38.9895 412.756 39.2373C412.086 39.8917 411.345 40.2933 410.692 40.977C410.633 41.0392 410.952 41.0902 410.733 41.2838C409.071 42.7583 407.52 43.9086 405.785 45.4482C404.945 46.1931 403.552 47.6296 402.676 48.3902C401.157 49.7068 399.094 51.1193 397.897 52.3555C397.116 53.1607 397.465 53.1735 397.23 53.6247C396.777 54.4958 395.184 55.1953 394.961 55.2819C394.954 55.2843 395.615 54.5795 395.154 54.8408C394.755 54.8542 394.968 55.2737 394.961 55.2819C394.815 55.3389 393.382 56.6234 393.138 56.9234C393.005 57.086 393.252 57.1749 393.179 57.2564C391.459 59.1913 389.655 61.0237 387.713 62.7789C387.677 62.8077 387.542 62.5723 387.46 62.6424C386.301 63.6181 385.839 64.5272 385.086 65.5444C384.335 66.5601 383.595 67.2123 382.757 67.4158C382.136 68.1192 381.036 68.9477 380.406 69.4151C379.774 69.8838 380.063 70.3185 380.022 70.3742C378.773 72.1063 377.68 72.809 376.119 74.3561C375.385 75.0818 373.968 76.6623 373.23 77.5165C372.641 78.1977 372.192 78.4962 371.667 79.16C371.597 79.249 371.84 79.3225 371.823 79.3536C371.379 80.2162 371.284 79.5093 371.08 79.5806C370.34 79.8376 369.904 80.0186 369.219 80.9938C369.058 81.2206 369.108 82.3352 368.793 82.7399C368.389 83.2573 368.348 82.8817 367.933 83.4272C367.898 83.4736 368.035 83.5857 367.743 83.887C366.4 85.2761 364.872 86.7748 363.526 88.2662C363.343 88.469 363.786 88.4003 363.524 88.6962C363.344 88.8995 363.162 89.1046 362.977 89.3103L363.061 89.2149C362.028 90.4802 360.924 91.7916 359.867 92.9249C359.561 93.2513 359.584 92.9105 359.477 92.9494C358.829 93.1918 358.704 94.1705 358.625 94.2849C356.764 97.0218 354.823 98.7739 352.977 101.601C352.876 101.755 352.473 103.214 351.716 103.448C351.666 103.464 350.904 103.684 350.842 104.327C350.838 104.367 351.269 104.198 350.846 104.733C350.423 105.269 349.914 106.252 349.149 106.852C348.907 107.042 348.107 107.331 347.91 108.272C347.897 108.336 347.826 109.941 347.055 110.001C346.929 110.01 346.456 109.579 346.118 110.634C346.054 110.836 346.379 110.615 346.148 111.103C345.796 111.85 345.045 112.643 344.718 113.627C344.661 113.8 344.602 114.652 344.001 114.962C343.907 115.011 343.83 114.746 343.635 114.993C342.714 116.162 341.962 117.556 341.012 118.75C340.676 119.173 340.539 118.756 340.157 119.178C339.775 119.6 339.09 120.504 338.908 121.083C338.726 121.661 339.527 121.413 339.096 122.176C337.215 125.504 334.984 128.562 333.02 131.841C332.728 132.328 333.132 132.019 332.717 132.743C331.182 135.404 328.774 140.131 327.167 142.291C325.875 144.019 326.909 141.53 326.027 142.908C325.602 143.573 325.769 144.623 325.698 144.802C325.017 146.552 324.18 147.576 323.508 149.108C323.37 149.424 323.75 149.237 323.63 149.504C323.221 150.421 322.658 151.304 322.252 152.184C322.072 152.577 322.283 152.591 322.096 152.941C321.651 153.781 321.215 154.502 320.653 155.257C320.602 155.326 320.625 154.709 320.317 155.338C319.818 156.359 319.062 157.55 318.687 158.82C318.576 159.198 318.976 159.397 318.35 160.03C318.219 160.162 317.82 159.737 317.844 160.815C317.846 160.997 317.753 162.739 317.064 163.306C316.882 163.456 316.263 163.772 316.142 164.226C316.127 164.288 316.448 164.152 316.316 164.514C315.851 165.781 315.26 167.102 314.791 168.419C314.666 168.771 315.11 168.354 314.917 168.876C314.385 170.314 313.614 172.039 312.987 173.406C312.756 173.909 312.705 173.478 312.67 173.507C312.091 173.975 312.409 174.512 312.358 174.722C312.031 176.027 311.451 176.889 311.074 178.055C310.97 178.376 311.274 178.235 311.27 178.306C311.215 179.029 311.004 178.395 310.805 178.791C310.25 179.892 309.782 181.215 309.384 182.403C309.238 182.841 309.671 182.446 309.537 182.837C308.752 185.154 307.901 187.532 307.001 189.76C306.832 190.178 306.723 189.843 306.648 189.917C306.125 190.425 306.266 191.467 306.24 191.687C306.125 192.687 305.832 192.994 305.602 193.832C304.464 197.974 302.879 202.99 301.776 206.857C300.333 211.917 299.191 215.842 298.194 220.739C298.131 221.049 298.47 220.795 298.42 221.063C297.747 224.564 296.99 227.925 296.464 231.46C296.421 231.748 296.752 231.38 296.692 231.843C296.571 232.792 296.361 233.98 296.128 234.914C296.014 235.377 295.889 234.712 295.779 235.179C295.522 236.269 295.326 237.445 295.207 238.575C295.157 239.056 295.527 238.373 295.442 238.995C294.87 243.224 294.429 247.393 293.691 251.69C293.641 251.982 293.07 252.193 293.122 252.829C293.27 252.889 293.449 252.902 293.61 252.936C293.173 259.173 292.705 265.275 292.671 271.55C292.67 271.811 292.961 271.36 292.961 271.865C292.961 274.829 293.103 277.636 292.952 280.693C292.938 280.994 292.417 280.865 292.539 281.744C292.56 281.899 292.701 283.218 292.834 283.55C292.854 283.595 293.078 283.341 293.111 283.763C293.302 286.258 293.461 288.819 293.579 291.321C293.597 291.723 293.299 291.324 293.31 291.612C293.392 293.653 293.857 295.78 293.913 297.748C293.949 299.052 293.444 298.643 293.12 299.391C293.074 299.497 293.191 300.288 292.95 300.37C292.341 300.577 291.593 300.303 290.952 300.569C290.813 300.627 291.145 301.671 290.693 301.095C290.662 301.055 290.42 300.295 290.272 300.12C290.169 299.999 289.954 300.281 289.806 300.023C289.659 299.764 289.824 299.429 289.632 298.989C289.44 298.548 289.18 298.794 289.012 297.875ZM377.57 71.5356C376.89 71.8826 377.458 72.5849 377.85 71.8754C377.868 71.8403 377.605 71.5173 377.57 71.5356ZM443.774 15.3159C442.762 15.4684 442.536 16.295 443.252 16.2122C443.961 16.1342 444.085 15.2679 443.774 15.3159ZM452.122 10.3009C450.994 10.5304 451.431 11.7384 452.358 10.9701C452.412 10.9261 452.188 10.2877 452.122 10.3009ZM292.533 296.221C292.523 296.233 292.591 296.815 292.605 296.827C292.929 297.096 292.793 295.935 292.533 296.221ZM460.788 6.04288C460.41 6.00267 459.567 6.55433 460.041 6.59498C460.422 6.62622 461.258 6.091 460.788 6.04288ZM351.999 99.0419C351.981 99.0428 351.72 99.3685 351.786 99.4073C351.997 99.5313 352.292 99.0271 351.999 99.0419ZM476.686 2.35035C474.26 2.42595 472.668 1.59886 475.357 1.44669C475.85 1.42749 474.326 1.87061 474.958 1.91116C476.106 1.98658 476.832 1.29117 477.979 1.63939C478.18 1.69904 476.82 2.34231 476.682 2.35199C476.684 2.35144 476.685 2.3509 476.686 2.35035ZM376.507 71.0816C376.489 71.0838 376.076 71.4918 376.075 71.51C376.059 71.9337 376.891 71.1122 376.507 71.0816ZM337.573 118.75C337.534 118.763 336.791 119.883 336.788 119.932C336.804 120.772 338.305 118.512 337.573 118.75ZM404.19 43.5647C404.472 42.9292 405.018 42.4006 405.634 42.3367C405.15 42.7385 404.674 43.1567 404.19 43.5647Z" fill="url(#paint1_linear_773_18)"/>
<path d="M-0.253888 171.71C1.4635 169.752 4.05692 167.326 6.04925 165.653C6.68564 165.116 6.47973 165.514 6.92665 165.148C7.824 164.414 8.50061 163.713 9.37454 163.045C9.66284 162.827 9.48403 163.304 9.78261 163.07C11.43 161.781 12.907 160.466 14.557 159.195C22.778 152.876 31.1758 147.165 39.9855 141.66C42.8757 139.855 46.545 137.82 49.5348 135.927C49.8865 135.704 49.5756 135.669 49.6354 135.615C50.581 134.771 50.4232 135.311 51.1505 134.937C53.9593 133.498 57.0949 131.695 59.7055 130.131C60.8196 129.464 59.5044 129.789 60.7468 129.322C60.833 129.289 60.6416 129.621 60.963 129.464C61.6905 129.106 63.0228 128.319 63.5861 128.023C64.6661 127.456 64.8649 127.343 65.8557 126.799C67.2164 126.053 68.8947 125.244 70.3642 124.401C70.6778 124.22 70.1634 124.277 70.6557 123.974C71.1436 123.673 72.5236 122.952 72.9784 122.762C73.4469 122.563 73.3282 122.798 73.4237 122.787C74.2111 122.697 75.565 121.522 75.7615 121.408C79.3495 119.326 82.5624 117.927 86.0303 116.168C88.6908 114.82 91.3969 113.392 93.9381 112.155C96.968 110.683 99.4834 109.574 102.423 108.152C102.733 108.003 102.28 107.99 102.658 107.808C106.631 105.891 110.663 104.04 114.699 102.341C115.105 102.17 114.662 102.564 115.072 102.402C117.572 101.414 121.653 99.9343 122.788 98.6232C124.464 97.9073 126.511 97.0353 128.077 96.5064C129.088 96.1652 128.216 96.7452 129.38 96.1498C129.643 96.0158 129.228 96.0253 129.628 95.8354C131.287 95.0465 133.15 94.2935 134.799 93.4964C135.134 93.3341 134.986 93.2472 135.073 93.1827C135.807 92.6479 137.3 92.3719 137.607 92.2668C139.94 91.4656 141.529 90.7161 143.637 89.8354C144.125 89.6316 143.478 89.7075 143.946 89.5057C146.377 88.4593 148.913 87.4266 151.323 86.5216C151.86 86.3201 151.429 86.6582 151.689 86.5689C152.834 86.1729 152.976 85.8122 154.077 85.4289C154.309 85.3477 154.229 85.5168 154.275 85.5127C155.006 85.4492 155.454 84.9346 155.619 84.8606C157.714 83.912 159.15 83.6755 161.175 82.8148C161.417 82.712 160.809 82.7876 161.492 82.5077C166.065 80.6341 170.895 78.7897 175.507 77.1393C176.224 76.8827 175.757 77.1805 175.806 77.1761C176.611 77.0926 176.971 76.6505 177.198 76.5522C178.983 75.7864 180.765 75.3571 181.887 74.5794C189.655 71.7592 197.286 68.7802 205.101 66.281C205.2 66.2488 205.066 66.4275 205.264 66.3628C207.638 65.589 207.12 65.5715 208.6 64.8049C208.973 64.6126 210.26 64.4532 210.373 64.4347C210.783 64.3692 210.443 64.6781 210.576 64.6463C211.681 64.376 211.311 63.8825 212.755 63.3794C212.8 63.3645 212.646 63.532 212.771 63.4998C213.158 63.4 213.518 63.2297 213.898 63.1361C214.769 62.9235 215.168 63.0802 216.395 62.4817C216.551 62.4056 216.196 62.1837 217.487 61.7553C218.002 61.5843 220.273 60.8 220.919 60.6022C221.563 60.4043 221.159 60.6502 221.206 60.639C222.967 60.1802 222.334 60.4555 223.259 60.3491C224.183 60.2413 223.793 59.8782 224.128 59.7094C224.462 59.5407 225.763 59.2164 226.082 59.1484C226.403 59.0799 226.038 59.2701 226.319 59.1975C228.185 58.7138 227.045 58.7102 227.622 58.4389C228.984 57.8007 230.197 57.7536 231.507 57.3506C231.861 57.2418 231.55 57.2651 231.861 57.1542C233.094 56.7163 233.873 56.5664 235.258 56.0107C235.353 55.9728 235.597 55.8523 235.907 55.7174C236.344 55.5274 236.909 55.3097 237.37 55.2462C237.482 55.2311 237.207 55.4065 237.747 55.2481C238.554 55.0116 239.991 54.5587 240.831 54.256C241.452 54.0325 240.693 54.1431 241.494 53.9244C241.85 53.8273 241.225 54.1114 241.891 53.9228C242.554 53.735 244.215 53.1894 244.842 52.9826C245.469 52.7757 245.096 52.7957 245.144 52.773C245.449 52.6347 246.675 52.1888 246.783 52.154C252.251 50.3749 257.365 48.8964 262.609 47.1806C263.019 47.0467 262.717 47.0462 262.78 47.0249C264.218 46.5299 263.149 47.1229 264.185 46.8792C263.983 46.7498 264.591 46.592 265.598 46.2529C266.083 46.0895 265.796 46.1061 265.839 46.0851C266.53 45.7552 267.073 45.7296 267.21 45.7155C267.718 45.6638 268.199 45.385 268.542 45.3491C268.885 45.3124 268.174 45.6422 269.133 45.3383C269.383 45.1928 268.621 45.2569 269.341 45.0027C272.029 44.0528 277.337 42.5404 279.506 41.8845C281.769 41.2 282.483 40.9702 283.787 40.5922C286.133 39.9132 285.244 40.069 286.67 39.5828C288.097 39.0974 287.483 39.5638 287.706 39.5559C287.932 39.547 288.143 39.4207 288.412 39.3717C288.68 39.3228 288.132 39.531 288.743 39.3564C289.355 39.1808 290.977 38.5817 291.172 38.4619C291.586 38.207 290.81 38.3051 292.41 37.871C292.502 37.8461 292.226 38.0001 292.577 37.9016C295.313 37.131 298.312 36.2362 301.063 35.4638C301.444 35.357 301.125 35.5251 301.347 35.4636C303.644 34.8267 302.82 34.9489 304.059 34.4491C303.818 34.6991 304.565 34.5866 306.327 34.0662C307.385 33.7546 307.181 33.7386 307.848 33.4897C308.048 33.415 308.804 33.2449 308.928 33.1734C309.348 32.9363 308.581 33.0311 310.439 32.5425C310.521 32.5213 310.28 32.6532 310.56 32.5754C312.369 32.0746 312.552 31.9047 314.47 31.3404C315.944 30.9064 318.701 30.1875 320.419 29.7107C320.429 29.8802 322.038 29.3814 322.657 29.0911C323.753 28.7865 325.007 28.4274 326.088 28.1402C326.463 28.0405 326.23 28.1527 326.278 28.1442C327.02 28.0152 327.476 27.7796 327.715 27.7089C330.265 26.9578 332.515 26.4126 334.958 25.67C335.045 25.6435 335.162 25.5097 335.841 25.399C335.886 25.3917 335.078 25.6583 336.246 25.3429C337.448 25.0188 339.695 24.46 341.299 23.9846C341.683 23.8703 342.667 23.5314 343.499 23.3678C343.61 23.3463 343.498 23.4026 343.658 23.3744C344.174 23.2827 344.426 23.1237 345.034 23.0391C345.646 22.9538 346.864 22.6827 348.498 22.1979C348.551 22.1823 348.932 22.0127 349.457 21.8756C350.296 21.6563 351.479 21.3598 352.339 21.135C352.75 21.0274 352.477 21.0583 352.548 21.039C355.319 20.296 357.336 19.8121 360.329 19.0639C360.887 18.9241 362.461 18.4788 363.52 18.25C364.694 17.9954 363.504 18.4585 366.215 17.7354C367.311 17.4424 368.597 16.9298 370.586 16.5401C374.38 15.5866 377.85 14.7945 381.672 13.8663C381.843 13.8248 382.373 13.6601 382.772 13.5679C383.364 13.4309 383.69 13.3732 384.11 13.2767C385.936 12.8575 387.526 12.478 389.262 12.0855C389.923 11.9361 389.697 12.0032 390.48 11.8262C391.261 11.65 391.776 11.5145 392.818 11.29C393.629 11.1155 394.446 10.9691 395.502 10.7368C395.54 10.694 396.244 10.5377 397.547 10.2423C397.799 10.1854 397.527 10.2343 397.646 10.2068C398.13 10.0951 398.578 10.006 399.032 9.90114C399.142 9.87567 399.146 9.86487 399.236 9.84361C400.005 9.66183 401.249 9.41583 401.484 9.36826C402.333 9.19855 402.722 9.10352 403.362 8.97124C404 8.83928 403.049 9.04928 403.793 8.89247C405.307 8.57296 407.355 8.13546 408.899 7.81049C409.536 7.67631 409.1 7.76054 409.191 7.74116C410.509 7.46261 411.801 7.19955 412.52 7.03891C413.436 6.87773 413.322 6.86932 415.169 6.49492C415.314 6.46564 415.501 6.43676 414.944 6.55374C414.388 6.67094 413.535 6.8443 412.746 7.01218C412.55 7.05339 411.513 7.28518 411.369 7.31703C410.248 7.56173 410.077 7.57248 410.018 7.58329C409.33 7.71198 408.039 8.00332 407.708 8.07615C406.169 8.41061 404.81 8.69805 403.536 8.97972C402.689 9.16709 402.611 9.21202 401.938 9.35885C399.706 9.84827 398.956 9.96608 396.848 10.4778C396.407 10.5857 396.861 10.523 395.26 10.8529C395.16 10.8737 393.961 11.1134 393.266 11.2912C393.179 11.3136 393.184 11.3252 393.069 11.3527C392.308 11.5334 391.812 11.6364 390.982 11.8324C390.159 12.027 389.133 12.273 388.193 12.4868C387.63 12.6151 386.895 12.7578 386.62 12.8146C385.845 12.9741 385.017 13.2036 384.526 13.2928C384.034 13.381 384.965 13.1227 383.702 13.3997C383.666 13.4527 383.57 13.5211 383.506 13.5815C380.752 14.2337 378.032 14.8727 375.232 15.5596C374.883 15.6454 375.247 15.5856 374.872 15.6787C373.337 16.0612 371.985 16.3737 370.352 16.7901C369.092 17.1116 367.773 17.4795 366.458 17.8233C365.631 17.9587 363.71 18.4722 362.315 18.8244C361.823 18.9483 361.85 18.9198 361.498 19.0033C360.165 19.32 360.803 19.2281 360.442 19.333C358.868 19.791 358.74 19.6563 356.912 20.1347C356.816 20.1592 355.652 20.5572 355.489 20.6068C354.453 20.918 355.308 20.621 354.651 20.7867C353.433 21.0944 352.656 21.2753 351.271 21.6727C350.869 21.7877 349.913 22.1073 349.106 22.2738C348.999 22.2957 349.049 22.2481 348.964 22.2687C347.425 22.6465 347.448 22.7507 346.598 23.0187C345.757 23.2849 344.407 23.5743 344.128 23.6268C343.401 23.7646 344.667 23.455 344.703 23.4395C345.136 23.2533 344.17 23.5264 343.42 23.724C343.284 23.6466 342.236 23.9368 342.642 23.9297C342.688 23.9283 343.269 23.7598 343.42 23.724C342.783 24.0087 341.663 24.3322 340.393 24.5717C339.795 24.6846 340.338 24.4752 338.557 24.9854C337.745 25.2181 338.082 25.2099 337.367 25.4306C335.707 25.9431 333.644 26.4379 331.942 26.9279C331.329 27.1047 331.94 26.9827 331.521 27.1055C330.403 27.4341 329.421 27.6735 328.331 28.0024C328.232 28.0325 328.49 28.0132 328.148 28.1112C325.556 28.8555 323.217 29.491 320.528 30.2681C319.228 30.6435 316.807 31.3821 315.49 31.7624C313.171 32.4314 310.134 33.2343 308.186 33.8363C306.886 34.238 307.188 34.2146 306.64 34.4242C305.582 34.8298 303.597 35.2666 303.325 35.3222C303.318 35.3236 304.457 34.9658 303.837 35.1164C303.462 35.1553 303.338 35.318 303.325 35.3222C303.129 35.3646 300.903 36.0187 300.458 36.167C300.218 36.2469 300.372 36.2673 300.247 36.3079C297.255 37.2738 294.212 38.2251 291.168 39.1303C291.114 39.1456 291.173 39.0469 291.046 39.0837C289.272 39.5937 288.109 40.0531 286.701 40.5521C285.279 41.0557 284.12 41.3995 283.214 41.5351C282.12 41.8957 280.505 42.336 279.574 42.5876C278.669 42.8308 278.591 43.0278 278.514 43.0557C276.081 43.9334 274.614 44.2996 271.995 45.1164C270.758 45.502 268.376 46.29 267.046 46.7383C266 47.091 265.351 47.2556 264.383 47.5962C264.252 47.6423 264.41 47.6761 264.37 47.6921C263.308 48.1371 263.772 47.7791 263.536 47.8182C262.674 47.9611 262.183 48.0456 260.828 48.5477C260.516 48.6626 259.683 49.2394 259.108 49.4453C258.361 49.7119 258.614 49.5184 257.83 49.8009C257.763 49.8251 257.797 49.8826 257.307 50.0399C255.004 50.7793 252.568 51.5376 250.224 52.3177C249.904 52.4241 250.348 52.3917 249.886 52.5475C247.719 53.2772 245.282 54.0831 243.194 54.7238C242.672 54.8834 242.972 54.7 242.852 54.715C242.118 54.8084 241.2 55.3335 241.039 55.392C239.372 55.9947 237.847 56.4948 236.325 56.9852C234.367 57.6165 232.435 58.2263 230.224 59.038C230.011 59.1156 228.44 59.908 227.64 59.9655C227.586 59.97 226.791 60.0183 226.196 60.3773C226.159 60.4 226.648 60.3467 225.852 60.61C225.056 60.8732 223.805 61.3861 222.679 61.649C222.322 61.7327 221.438 61.8093 220.469 62.3325C220.406 62.3664 218.955 63.2977 218.302 63.2373C218.196 63.2268 218.196 62.9171 217.025 63.4888C216.801 63.5986 217.246 63.5108 216.645 63.7665C215.727 64.1586 214.445 64.5298 213.331 65.0691C213.137 65.1633 212.345 65.6638 211.604 65.7657C211.489 65.7815 211.66 65.6131 211.292 65.7331C209.544 66.3033 207.762 67.0206 205.989 67.5904C205.357 67.7937 205.619 67.5203 204.954 67.7142C204.289 67.9081 202.967 68.3434 202.316 68.6645C201.665 68.9861 202.497 68.9688 201.49 69.3629C197.128 71.0743 192.698 72.5642 188.319 74.2059C187.67 74.4497 188.243 74.3412 187.29 74.708C183.746 76.0671 177.736 78.5228 174.586 79.523C172.07 80.3174 175.099 78.9673 173.201 79.6352C172.284 79.9571 171.442 80.6785 171.229 80.7759C169.148 81.7304 167.641 82.1629 165.735 82.9865C165.344 83.156 165.787 83.1379 165.453 83.2808C164.315 83.7703 163.087 84.198 162.002 84.6556C161.515 84.8613 161.648 84.9319 161.195 85.1081C160.112 85.531 159.146 85.8768 158.061 86.2059C157.961 86.236 158.549 85.8351 157.753 86.158C156.452 86.686 154.805 87.2497 153.367 87.974C152.941 88.1893 153.028 88.4501 152.014 88.6704C151.801 88.7169 151.926 88.3052 150.939 89.0301C150.77 89.1519 149.095 90.2823 148.084 90.4397C147.819 90.4807 147.1 90.487 146.588 90.7519C146.519 90.7888 146.864 90.8054 146.432 91.0057C144.907 91.7093 143.291 92.3858 141.739 93.1092C141.325 93.3027 142.012 93.1786 141.393 93.4627C139.706 94.2383 137.51 95.1544 135.811 95.8478C135.182 96.1038 135.558 95.7912 135.507 95.7977C134.685 95.8983 134.386 96.3831 134.153 96.5069C132.702 97.2732 131.522 97.6316 130.154 98.2882C129.776 98.4695 130.11 98.4912 130.04 98.5381C129.306 99.0171 129.78 98.4959 129.268 98.6915C127.835 99.2383 126.289 99.9496 124.898 100.604C124.388 100.845 125.041 100.751 124.582 100.965C121.893 102.226 118.999 103.544 116.314 104.684C115.806 104.899 116.059 104.619 115.941 104.637C115.126 104.758 114.214 105.54 113.988 105.681C112.955 106.323 112.456 106.414 111.493 106.897C106.803 109.255 100.921 112.024 96.4972 114.174C90.667 117.009 86.1407 119.161 80.7479 122.059C80.4 122.246 80.8534 122.253 80.5551 122.417C76.7079 124.521 72.9339 126.475 69.1526 128.66C68.8447 128.838 69.3956 128.777 68.9055 129.068C67.9037 129.667 66.6125 130.383 65.5274 130.921C65.0029 131.181 65.5929 130.63 65.0668 130.895C63.842 131.511 62.57 132.223 61.3895 132.948C60.8877 133.257 61.7679 133.007 61.1078 133.393C56.5551 136.066 52.1462 138.772 47.5183 141.316C47.2027 141.489 46.6886 141.247 46.0675 141.747C46.0878 141.891 46.1735 142.022 46.227 142.156C39.8204 146.302 33.4047 150.407 27.2331 154.908C26.9725 155.098 27.5792 154.985 27.0765 155.354C24.2179 157.461 21.4506 159.689 18.428 161.799C18.1259 162.011 17.9637 161.515 17.1739 162.259C17.032 162.391 15.834 163.473 15.592 163.82C15.5598 163.868 15.927 163.856 15.5412 164.192C13.2104 166.216 10.8687 168.245 8.56823 170.257C8.20437 170.575 8.40318 170.039 8.14253 170.264C6.31693 171.836 4.54221 173.927 2.81276 175.503C1.63635 176.583 1.70566 175.852 0.826835 176.198C0.700969 176.247 0.0640311 176.974 -0.1581 176.848C-0.724533 176.536 -0.944192 175.727 -1.58343 175.436C-1.69101 175.388 -2.15298 176.035 -2.24786 175.954C-2.24788 175.954 -2.2479 175.954 -2.24792 175.954C-2.27614 175.931 -2.27339 175.844 -2.21968 175.657C-2.20443 175.601 -1.66602 174.796 -1.59506 174.537C-1.54668 174.357 -1.93931 174.416 -1.79216 174.09C-1.64362 173.763 -1.2322 173.621 -0.936141 173.111C-0.637439 172.599 -1.03121 172.594 -0.253888 171.71ZM275.468 43.6937C274.603 43.8809 274.567 44.204 275.455 43.8489C275.498 43.8314 275.512 43.6838 275.468 43.6937ZM378.018 14.8107C376.896 15.0395 376.136 15.2845 376.936 15.1225C377.734 14.9601 378.359 14.7407 378.018 14.8107ZM389.634 12.0598C388.301 12.3408 388.112 12.4838 389.531 12.1361C389.613 12.116 389.712 12.0434 389.634 12.0598ZM3.37578 173.216C3.35819 173.217 2.87513 173.713 2.87334 173.733C2.82728 174.194 3.78869 173.204 3.37578 173.216ZM401.185 9.46444C400.772 9.54552 399.609 9.80931 400.115 9.70968C400.52 9.62952 401.701 9.36227 401.185 9.46444ZM231.601 57.5171C231.586 57.5161 231.1 57.6732 231.12 57.7008C231.186 57.789 231.851 57.5352 231.601 57.5171ZM420.909 5.32436C417.964 5.92768 416.243 6.26461 419.389 5.62818C419.963 5.51166 418.157 5.88074 418.884 5.7339C420.225 5.46148 421.131 5.2757 422.475 5.00499C422.721 4.95473 421.079 5.28904 420.904 5.32542C420.905 5.32507 420.907 5.32471 420.909 5.32436ZM274.877 43.506C274.859 43.5074 274.181 43.7154 274.166 43.7243C273.827 43.9294 275.194 43.5095 274.877 43.506ZM203.355 67.0337C203.314 67.035 201.764 67.5801 201.717 67.6093C200.99 68.1181 204.123 67.0134 203.355 67.0337ZM320.447 29.7073C321.17 29.4343 322.048 29.1796 322.654 29.092C321.925 29.2933 321.188 29.5012 320.447 29.7073Z" fill="url(#paint2_linear_773_18)"/>
<defs>
<linearGradient id="paint0_linear_773_18" x1="427" y1="1.00005" x2="-4.49999" y2="310.5" gradientUnits="userSpaceOnUse">
<stop stop-color="#1F2525"/>
<stop offset="1" stop-color="#3B4747"/>
</linearGradient>
<linearGradient id="paint1_linear_773_18" x1="478" y1="-10" x2="265" y2="301" gradientUnits="userSpaceOnUse">
<stop stop-color="#999999"/>
<stop offset="1" stop-color="white"/>
</linearGradient>
<linearGradient id="paint2_linear_773_18" x1="210.75" y1="5" x2="210.75" y2="177" gradientUnits="userSpaceOnUse">
<stop stop-color="#999999"/>
<stop offset="1" stop-color="white"/>
</linearGradient>
</defs>
</svg>
